<svg xmlns="http://www.w3.org/2000/svg" width="139" height="30" viewBox="0 0 139 30" fill="none"><path d="M101.846 14.0117C101.221 17.5212 103.126 18.4072 104.875 18.4072C107.434 18.4072 108.453 16.5142 108.748 14.7992L111.341 0H118.201L115.381 16.0447C114.79 19.4256 112.295 23.8551 104.519 23.8551C99.0066 23.8551 93.6912 21.6252 95.1336 13.3227L97.4658 0H104.307L101.846 14.0117Z" fill="#1BBCC0"></path><path d="M48.3946 0L45.2788 17.7938H54.0394L53.055 23.3061H37.4343L41.5383 0.00757346L48.3946 0Z" fill="#F7F9FC"></path><path d="M55.5166 19.1301C55.4964 18.4242 55.633 17.7226 55.9165 17.0759C56.1999 16.4291 56.6232 15.8532 57.1559 15.3896C58.4696 14.3068 60.7336 13.6821 63.5541 13.4966L67.3627 13.2354L67.4612 12.4139C67.624 11.1342 67.0334 10.4793 65.7537 10.4793C64.671 10.4793 63.8835 10.9373 63.7207 12.4479H57.2468C57.5761 9.59334 59.5789 6.50781 66.0074 6.50781C72.0459 6.50781 74.6393 9.1996 73.8177 13.9244L72.8978 19.2739C72.6543 20.6049 72.5452 21.957 72.5722 23.3097H66.2118C66.1863 22.506 66.2524 21.702 66.4087 20.9133C65.5909 22.7494 63.5238 23.7035 60.9948 23.7035C57.7465 23.6921 55.5166 22.0831 55.5166 19.1301ZM66.8365 17.487L67.0674 16.0786L65.4244 16.1771C63.0619 16.3058 62.3426 17.3128 62.3426 18.3085C62.3426 19.3913 63.2588 19.7548 64.1788 19.7548C64.8278 19.7884 65.465 19.5721 65.9594 19.1503C66.4537 18.7285 66.7676 18.1332 66.8365 17.487Z" fill="#F7F9FC"></path><path d="M72.8411 29.3667L73.6626 24.8236C74.5626 25.1099 75.5053 25.238 76.449 25.2022C77.4334 25.2022 78.4859 24.8236 78.9099 23.7257L79.1068 23.1994L75.8584 6.85938H82.817L83.3394 16.0137C83.4086 16.6435 83.3984 17.2795 83.3091 17.9067H83.4076C83.5394 17.2611 83.7255 16.6279 83.9641 16.0137L87.6062 6.85938H94.3981L85.6905 24.1535C83.0025 29.4538 79.9169 29.8323 76.6346 29.8323C75.354 29.8642 74.0758 29.7073 72.8411 29.3667V29.3667Z" fill="#F7F9FC"></path><path d="M138.164 13.6944C138.164 17.7302 135.669 22.1256 127.14 22.1256H123.354L121.987 30.0004H115.131L119.231 6.69043H128.912C133.602 6.69043 138.164 8.2048 138.164 13.6944ZM130.846 13.9897C130.846 11.7181 129.01 11.4607 127.666 11.4607H125.27L124.187 17.5182H126.583C129.699 17.5333 130.846 15.7766 130.846 13.9897Z" fill="#1BBCC0"></path><path d="M6.64453 15.2243C6.66346 15.1373 13.5501 3.35547 13.5501 3.35547H9.16596C8.69878 3.35641 8.241 3.48673 7.84338 3.73198C7.44576 3.97724 7.12384 4.32784 6.91333 4.7449C6.74235 5.08584 6.6517 5.46142 6.64832 5.84282C6.64832 5.84282 6.64453 15.2243 6.64453 15.2243Z" fill="#1BBCC0"></path><path d="M0.302884 10.6799L4.57719 17.9073L4.52797 7.2461H2.29807C1.99646 7.2456 1.69772 7.30457 1.41893 7.41965C1.14014 7.53472 0.886769 7.70364 0.673325 7.91673C0.459881 8.12982 0.290547 8.38291 0.175013 8.66151C0.0594784 8.94011 8.32119e-06 9.23876 8.73183e-06 9.54037C-0.00109991 9.94026 0.103379 10.3334 0.302884 10.6799V10.6799Z" fill="#A9D9DC"></path><path d="M7.04934 20.1444C7.04797 20.4833 7.10431 20.82 7.21592 21.1401L7.24999 21.2385V21.2688C7.27638 21.3398 7.30671 21.4093 7.34085 21.477C7.4781 21.7688 7.66227 22.0361 7.88603 22.2683C8.16765 22.5697 8.5074 22.8109 8.88479 22.9775C9.26217 23.1441 9.66939 23.2325 10.0819 23.2375H22.6019C23.0348 23.2374 23.462 23.138 23.8506 22.947C24.2391 22.756 24.5787 22.4785 24.8432 22.1358L35.2204 4.58043L35.4362 4.20183C35.6506 3.76977 35.7513 3.29014 35.7287 2.80831C35.7061 2.32647 35.561 1.85836 35.3071 1.44826C35.0531 1.03815 34.6988 0.6996 34.2775 0.464633C33.8562 0.229667 33.382 0.106051 32.8996 0.105469H20.0048C19.5448 0.105735 19.0918 0.217879 18.6849 0.432237C18.2779 0.646595 17.9292 0.956727 17.6688 1.33589L17.472 1.66905L7.35221 18.8041C7.30187 18.9139 7.25763 19.0264 7.2197 19.1411C7.18192 19.2503 7.15032 19.3615 7.12505 19.4742C7.07417 19.694 7.04877 19.9188 7.04934 20.1444Z" fill="#F7F9FC"></path></svg>